<?xml version="1.0" encoding="UTF-8"?><svg xmlns="http://www.w3.org/2000/svg" viewBox="0 0 565.36 423.18"><defs><style>.d{fill:#718238;}</style></defs><g id="a"/><g id="b"><g id="c"><g><g><g transform="translate(59.008327, 34.217666)"><path class="d" d="M130.33,259.16c68.45,0,120.28-41.51,130.95-104.69h-72.76c-8.89,23.39-29.81,38.29-56.82,38.29-34.74,0-58.88-25.92-58.88-63.18s24.48-63.18,59.63-63.18c25.92,0,47.52,14.57,54.98,36.93h72.41C247.06,40.48,195.98,0,129.58,0,52.93,0,0,52.93,0,129.58s52.93,129.58,130.33,129.58Z"/></g><g transform="translate(70.687665, 39.300738)"><path class="d" d="M214.42,423.18h43.7c54.64,0,79.46-14.57,97.58-63.53l77.75-205.21h-100.11l-12.03,51.49-7.45,38.36h-3.21l-7.8-38.36-13.13-51.49h-101.2l74.53,186.06c-3.15,5.68-8.14,8.48-17.71,8.48h-30.91v74.19Z"/></g></g><g transform="translate(84.760528, 36.138465)"><path class="d" d="M510.35,259.16c33.12,0,55.02-21.1,55.02-52.07s-21.9-52.07-55.02-52.07-55.34,20.62-55.34,52.07,22.29,52.07,55.34,52.07Z"/></g></g></g></g></svg>