<svg width="30" height="26" viewBox="0 0 30 26" fill="none" xmlns="http://www.w3.org/2000/svg">
<path d="M6.14674 0.350098H1.87575C1.70627 0.350047 1.53977 0.394717 1.39307 0.479597C1.24637 0.564477 1.12466 0.686561 1.04024 0.833522C0.955815 0.980484 0.911662 1.14712 0.912237 1.3166C0.912812 1.48609 0.958097 1.65242 1.04352 1.7988L14.5288 24.9165C14.6136 25.062 14.7351 25.1827 14.8811 25.2666C15.0272 25.3506 15.1926 25.3947 15.3611 25.3947C15.5295 25.3947 15.695 25.3506 15.841 25.2666C15.987 25.1827 16.1085 25.062 16.1933 24.9165L29.6786 1.7988C29.764 1.65242 29.8093 1.48609 29.8099 1.3166C29.8105 1.14712 29.7663 0.980484 29.6819 0.833522C29.5975 0.686561 29.4757 0.564477 29.329 0.479597C29.1823 0.394717 29.0159 0.350047 28.8464 0.350098H24.5754L15.3611 15.7079L6.14674 0.350098Z" fill="#252C0D"/>
<path d="M22.3292 0.350098H16.6904L15.3611 3.01248L14.0299 0.350098H8.39307L15.3611 11.9629L22.3292 0.350098Z" fill="#252C0D"/>
</svg>
